PathFileType	4	(X/Y/Z)	C:\Users\Basilio\Documents\Thesis Gigler\squatting_fais\c3dfiles\073\SLS_front_pre3\markers_experimental.trc
DataRate	CameraRate	NumFrames	NumMarkers	Units	OrigDataRate	OrigDataStartFrame	OrigNumFrames
200.000000	200.000000	4	61	mm	200.000000	0	1353
Frame#	Time	FHD			LBHD			RBHD			C7			T10			CLAV			LSHO			LUUPA			LMUPA			LDUPA			LLEP			LMEP			LRAD			LUL			LRFIN			RSHO			RUPA1			RMUPA			RDUPA			RLEP			RMEP			RRAD			RUL			RUFIN			LASI			RASI			USACR			LSACR			RSACR			LTHI1			LTHI2			LTHI3			LTHI4			LLFC			LMFC			LTIB1			LTIB2			LTIB3			LTIB4			LLMAL			LMMAL			LHEE			LMT1			LMT2			LMT5			RTHI			RTHI2			RTHI3			RTHI4			RLFC			RMFC			RTIB1			RTIB2			RTIB3			RTIB4			RLMAL			RMMAL			RHEE			RMT1			RMT2			RMT5			
		X1	Y1	Z1	X2	Y2	Z2	X3	Y3	Z3	X4	Y4	Z4	X5	Y5	Z5	X6	Y6	Z6	X7	Y7	Z7	X8	Y8	Z8	X9	Y9	Z9	X10	Y10	Z10	X11	Y11	Z11	X12	Y12	Z12	X13	Y13	Z13	X14	Y14	Z14	X15	Y15	Z15	X16	Y16	Z16	X17	Y17	Z17	X18	Y18	Z18	X19	Y19	Z19	X20	Y20	Z20	X21	Y21	Z21	X22	Y22	Z22	X23	Y23	Z23	X24	Y24	Z24	X25	Y25	Z25	X26	Y26	Z26	X27	Y27	Z27	X28	Y28	Z28	X29	Y29	Z29	X30	Y30	Z30	X31	Y31	Z31	X32	Y32	Z32	X33	Y33	Z33	X34	Y34	Z34	X35	Y35	Z35	X36	Y36	Z36	X37	Y37	Z37	X38	Y38	Z38	X39	Y39	Z39	X40	Y40	Z40	X41	Y41	Z41	X42	Y42	Z42	X43	Y43	Z43	X44	Y44	Z44	X45	Y45	Z45	X46	Y46	Z46	X47	Y47	Z47	X48	Y48	Z48	X49	Y49	Z49	X50	Y50	Z50	X51	Y51	Z51	X52	Y52	Z52	X53	Y53	Z53	X54	Y54	Z54	X55	Y55	Z55	X56	Y56	Z56	X57	Y57	Z57	X58	Y58	Z58	X59	Y59	Z59	X60	Y60	Z60	X61	Y61	Z61	

1	0	-201.3142547607422	1691.22216796875	-875.6079711914065	-336.1305847167969	1670.225463867188	-905.9556274414065	-366.8369445800782	1657.275512695313	-773.4026489257815	-406.0054321289064	1547.695556640625	-838.6510009765627	-428.9396057128907	1205.726684570313	-834.2410888671877	-281.0181884765626	1464.216064453125	-831.9599609375002	-298.5564880371094	1489.578002929688	-997.5521240234377	-256.3715820312501	1350.574584960938	-1077.433349609375	-208.8544158935547	1350.467529296875	-1060.91552734375	-216.3091278076172	1293.450439453125	-1085.435791015625	-146.5181121826172	1213.839477539063	-1088.334106445313	-167.426986694336	1177.324096679688	-1027.946411132813	110.7116012573242	1146.175903320313	-1009.725952148438	94.81597137451173	1116.437255859375	-1076.52490234375	188.3602447509766	1122.663208007813	-1013.103576660156	-304.8743896484376	1481.348388671875	-671.9307861328126	-268.0525207519532	1321.205200195313	-581.5460815429689	-220.9508666992188	1322.738891601563	-589.5320434570314	-228.5982360839844	1265.057006835938	-574.2515258789064	-161.740219116211	1203.638427734375	-567.3854980468751	-179.2045135498047	1163.978637695313	-639.2594604492189	84.17620086669923	1110.2158203125	-646.2462158203126	79.93070220947267	1099.93310546875	-571.1470336914064	172.5795288085938	1087.354370117188	-634.2580566406251	-245.3383331298829	1059.41796875	-957.5068969726565	-249.3365325927735	1046.0283203125	-702.3856811523439	-434.9197082519532	1105.083129882813	-827.143737792969	-447.7557067871095	1077.124145507813	-856.0714111328127	-450.388397216797	1072.92578125	-800.2940673828127	-319.0980529785157	737.3068237304689	-1010.381164550781	-294.4266967773438	658.6553344726564	-990.6060791015627	-252.9995269775391	659.2395629882814	-963.484558105469	-329.3241882324219	611.4916381835939	-983.3524169921877	-337.8250122070313	549.4053344726564	-983.6459960937502	-341.1610717773438	546.3822021484376	-845.3015136718752	-293.9583435058594	351.1352233886719	-926.9854736328127	-352.5363464355469	308.4957885742188	-975.5119628906252	-311.5415039062501	302.2644348144532	-955.8438110351565	-311.4197082519532	225.6019897460938	-918.731872558594	-375.7977294921876	110.1655654907227	-934.6524658203127	-364.3746948242188	137.6814575195313	-854.051452636719	-437.1590881347657	92.98780059814455	-892.856384277344	-218.3146972656251	54.95337295532228	-846.5914306640627	-216.6973266601563	50.06147766113283	-885.5511474609377	-253.4356384277344	33.53410339355469	-940.5202636718752	-354.1206054687501	811.7916259765627	-639.6346435546876	-323.2468566894532	753.0122070312501	-638.3311157226564	-289.4655761718751	752.5148315429689	-642.0955200195314	-356.6767578125001	678.9317626953126	-662.3698120117189	-348.5471191406251	528.9632568359376	-681.2014160156251	-338.0387573242188	517.5546264648439	-811.360778808594	-300.8316650390626	367.4113159179688	-767.2330932617189	-328.1840209960938	285.3197937011719	-700.6561279296876	-301.7451782226563	284.1501464843751	-741.3043212890626	-315.7840576171876	238.9386901855469	-775.2139892578127	-366.4007873535157	105.9995193481446	-726.9951171875001	-355.0078430175782	130.388671875	-812.1599121093752	-433.5366210937501	85.33167266845705	-784.6268310546877	-208.5531158447266	56.41063690185548	-788.0999755859377	-210.5044097900391	52.99679565429689	-746.3334350585939	-256.2752380371094	35.24315643310548	-700.7810058593751	
2	0.005	-201.5546569824219	1691.314697265625	-875.8819580078127	-336.5437316894532	1670.224853515625	-906.1239013671877	-367.1938781738282	1657.29052734375	-773.6429443359377	-406.3196716308595	1547.632080078125	-838.9439697265627	-429.0285034179689	1205.668090820313	-834.4285888671877	-281.3513183593751	1464.214599609375	-832.2965087890627	-298.8408203125001	1489.638305664063	-997.7147216796877	-255.6372985839844	1351.263793945313	-1077.529907226563	-208.1604461669922	1351.567749023438	-1061.057983398438	-215.0792999267579	1294.563598632813	-1085.443603515625	-144.4928283691407	1215.633911132813	-1088.271484375	-165.2842559814453	1178.785888671875	-1028.010864257813	113.1695098876953	1150.347412109375	-1008.903625488281	97.82275390625003	1120.680053710938	-1075.81201171875	190.6129302978516	1127.223266601563	-1012.245727539063	-305.2126159667969	1481.476806640625	-672.3265380859376	-267.3137817382813	1321.951904296875	-581.9122924804689	-220.1762695312501	1323.767333984375	-589.8679199218751	-227.421371459961	1266.066162109375	-574.6760253906251	-159.9788970947266	1205.21533203125	-567.7545776367189	-177.2804107666016	1165.254150390625	-639.5483398437501	86.66041564941408	1113.932495117188	-647.1277465820314	82.62857055664064	1103.588256835938	-571.8137207031251	175.2721862792969	1091.75830078125	-635.2178344726564	-245.3646392822266	1059.413940429688	-957.5723876953127	-249.3728027343751	1046.068359375	-702.5339965820314	-434.9996948242189	1105.025390625	-827.3530883789065	-447.8141174316407	1077.070922851563	-856.1843261718752	-450.5068969726564	1072.853393554688	-800.475036621094	-319.2375183105469	737.2734985351564	-1010.421630859375	-294.7003479003907	658.6595458984376	-990.6804199218752	-253.2126770019532	659.1837158203126	-963.472351074219	-329.5481262207032	611.5499267578126	-983.436218261719	-338.1094360351563	549.4376831054689	-983.7391357421877	-341.4013061523438	546.4025268554689	-845.3545532226565	-294.2194824218751	351.1443481445313	-927.0493164062502	-352.6733093261719	308.4733886718751	-975.5657958984377	-311.6694030761719	302.2693176269532	-955.9129638671877	-311.4696350097657	225.6472625732422	-918.8220214843752	-375.7481079101563	110.1454696655274	-934.6669921875002	-364.3673095703126	137.6790618896485	-854.0889892578127	-437.1857299804689	92.99157714843751	-892.8425903320315	-218.3059844970704	54.95888519287111	-846.6076660156252	-216.7190704345704	50.02450942993165	-885.642517089844	-253.4764404296876	33.53595733642579	-940.534362792969	-354.1347351074219	811.801452636719	-639.7618408203126	-323.2278747558594	753.0591430664064	-638.3908081054689	-289.4360351562501	752.5245361328126	-642.2229003906251	-356.6315612792969	678.9521484375001	-662.4505004882814	-348.4469299316407	528.9772949218751	-681.2900390625001	-337.0193786621094	517.4642944335939	-811.2930297851565	-300.7761230468751	367.4042663574219	-767.3093261718751	-328.1543579101563	285.3508911132813	-700.6968383789064	-301.7072753906251	284.1578369140626	-741.3289184570314	-315.7485046386719	238.9273376464844	-775.3118896484377	-366.3903808593751	105.9964752197266	-727.0091552734376	-355.0088500976563	130.4380950927735	-812.1314086914065	-433.5172729492189	85.3461151123047	-784.6381835937502	-208.5688018798829	56.40067672729494	-788.1148071289065	-210.5217285156251	52.98929595947267	-746.3801269531251	-256.2717590332032	35.26788711547852	-700.7574462890626	
3	0.01	-201.9278106689454	1691.447021484375	-876.1241455078127	-336.8942871093751	1670.248291015625	-906.3619384765627	-367.5610961914063	1657.280151367188	-773.8284912109377	-406.5823059082032	1547.595336914063	-839.261901855469	-429.115447998047	1205.595581054688	-834.630554199219	-281.5840454101563	1464.263305664063	-832.5193481445315	-299.0840454101563	1489.647583007813	-997.8099365234377	-255.2125701904297	1351.2490234375	-1078.02392578125	-207.6199645996094	1352.42529296875	-1061.679809570313	-213.9905090332032	1295.6201171875	-1085.475219726563	-142.533432006836	1217.321533203125	-1088.503295898438	-163.1463470458985	1180.325317382813	-1028.0302734375	115.5172424316407	1154.501098632813	-1007.906921386719	100.8107147216797	1124.8896484375	-1075.145874023438	193.3174591064454	1132.070678710938	-1011.145141601563	-305.4765319824219	1481.630615234375	-672.7305908203126	-266.6063537597657	1322.653442382813	-582.2719726562501	-219.3978729248047	1324.732788085938	-590.1484985351564	-226.3058319091797	1267.00439453125	-574.9581298828126	-158.2274627685547	1206.6494140625	-568.0972900390626	-175.224609375	1166.66650390625	-640.0028076171876	89.09609222412111	1117.6025390625	-647.7841796875001	85.2229690551758	1107.2197265625	-572.5731811523439	177.8936462402344	1096.143676757813	-636.0073242187501	-245.3858489990235	1059.3759765625	-957.7091064453127	-249.5039825439454	1046.069213867188	-702.6466064453126	-435.0410766601564	1104.968994140625	-827.463073730469	-445.6818237304689	1076.663330078125	-856.1313476562502	-450.1933593750001	1072.911987304688	-800.5772094726565	-319.3980102539063	737.2604980468751	-1010.507568359375	-294.9337463378907	658.6867675781251	-990.7905273437502	-253.4257354736329	659.1614990234376	-963.5388793945315	-329.7806396484376	611.5381469726564	-983.5267333984377	-338.3280639648438	549.4568481445314	-983.8000488281252	-341.5007934570313	546.4417724609376	-845.4504394531252	-294.3910827636719	351.1827392578126	-927.1333618164065	-352.8374633789063	308.4392395019532	-975.6006469726565	-311.8232727050782	302.2762756347657	-956.0349731445315	-311.5626525878907	225.6395263671876	-918.8963623046877	-375.8141784667969	110.141960144043	-934.6631469726565	-364.3811950683594	137.685546875	-854.0925292968752	-437.2051391601564	92.96844482421876	-892.856628417969	-218.3091888427735	54.95888137817384	-846.5996704101565	-216.7389526367188	50.016658782959	-885.6600341796877	-253.4764404296876	33.53595733642579	-940.534362792969	-354.1347351074219	811.8401489257815	-639.8432617187501	-323.1999206542969	753.0625000000001	-638.5292968750001	-289.4297180175782	752.5656127929689	-642.2955322265626	-356.5853271484376	678.9711914062501	-662.5388183593751	-348.3851013183594	528.9674682617189	-681.3436279296876	-336.9533996582032	517.5220336914064	-811.3469238281252	-300.7132568359376	367.3490905761719	-767.3648681640626	-328.1163330078126	285.3519287109376	-700.6793823242189	-301.6948852539063	284.1237182617188	-741.3505859375001	-315.7309570312501	238.9060211181641	-775.2747192382815	-366.3803710937501	106.0220718383789	-727.0037841796876	-355.0088500976563	130.4380950927735	-812.1314086914065	-433.5133666992189	85.34128570556642	-784.6401367187502	-208.5625000000001	56.3942222595215	-788.1140747070315	-210.5056610107422	52.99395751953126	-746.3353881835939	-256.2701416015626	35.24828338623048	-700.7459716796876	
4	0.015	-202.3781433105469	1691.517822265625	-876.3289794921877	-337.2116394042969	1670.268432617188	-906.6152343750002	-367.9450683593751	1657.221069335938	-774.1417236328127	-406.9007263183595	1547.529174804688	-839.5246582031252	-429.2027893066407	1205.524536132813	-834.7891845703127	-281.8377380371094	1464.276977539063	-832.8242797851565	-299.3874511718751	1489.632690429688	-997.973571777344	-254.5626678466797	1351.971435546875	-1078.090087890625	-206.9584960937501	1353.397583007813	-1061.712890625	-212.8013763427735	1296.648803710938	-1085.535278320313	-140.3189849853516	1218.975219726563	-1088.575073242188	-160.9120483398438	1181.800537109375	-1028.1181640625	117.7953796386719	1158.628540039063	-1007.140625	103.5538101196289	1128.999389648438	-1074.375732421875	195.9932556152344	1137.262817382813	-1009.888732910156	-305.7197265625001	1481.800659179688	-673.0876464843751	-265.8235473632813	1323.271118164063	-582.6193237304689	-218.7308654785157	1325.77880859375	-590.5264892578126	-225.1811981201172	1268.000366210938	-575.2496337890626	-156.5762786865235	1208.271118164063	-568.4934692382814	-174.0336456298828	1167.47265625	-639.6900634765626	91.47654724121095	1121.173828125	-648.6611938476564	87.87903594970705	1110.893310546875	-573.2865600585939	180.4867248535157	1100.584594726563	-636.8236083984376	-245.4049682617188	1059.385864257813	-957.872009277344	-249.5375061035157	1046.115478515625	-702.7848510742189	-435.1572875976564	1104.950805664063	-827.5945434570315	-445.8533935546876	1076.626953125	-856.259948730469	-450.2497863769532	1072.8720703125	-800.6602783203127	-319.5803527832032	737.2103881835939	-1010.653686523438	-295.0942687988282	658.6694946289064	-990.9140625000002	-253.4603729248047	659.1182861328126	-963.4465942382815	-329.9350585937501	611.5228881835939	-983.5839843750002	-338.4739685058594	549.4658813476564	-983.8414306640627	-341.6911621093751	546.4359130859376	-845.500915527344	-294.4961242675782	351.2049560546876	-927.1658325195315	-352.9264831542969	308.4470520019532	-975.6273193359377	-311.9383544921876	302.2712097167969	-956.0739746093752	-311.6645202636719	225.6619415283204	-918.9311523437502	-375.8053588867188	110.1096496582032	-934.698913574219	-364.3742065429688	137.6534576416016	-854.1346435546877	-437.220184326172	92.95803833007814	-892.8763427734377	-218.3132781982422	54.94701004028322	-846.6207275390627	-216.7221374511719	50.0245819091797	-885.6419067382815	-253.5047760009766	33.46300506591798	-940.5540161132815	-354.1720275878907	811.8206787109377	-639.9375610351564	-323.1871337890626	753.0717163085939	-638.5860595703126	-289.4436645507813	752.5802001953126	-642.3729248046876	-356.5589599609376	678.9407958984376	-662.6303710937501	-348.3344726562501	528.9849243164064	-681.4379882812501	-336.8807067871094	517.4459228515626	-811.4480590820315	-300.6784667968751	367.3252258300782	-767.3925170898439	-328.0970153808594	285.3637084960938	-700.7479248046876	-301.6272888183594	284.1362915039063	-741.4057617187501	-315.7309570312501	238.9060211181641	-775.2747192382815	-366.3871459960938	106.0110931396485	-727.0092163085939	-355.0078430175782	130.388671875	-812.1599121093752	-433.5480957031251	85.38265228271486	-784.632751464844	-208.5633392333985	56.42041015625001	-788.0696411132815	-210.4971923828126	52.9850425720215	-746.3355712890626	-256.2391052246094	35.28071594238282	-700.7717285156251	
